HIERARCHY
ROOT hip
{
	OFFSET 0.000000 0.000000 0.000000 
	CHANNELS 6 Xposition Yposition Zposition Xrotation Zrotation Yrotation
	JOINT abdomen
	{
		OFFSET 0.000000 3.402643 0.000000 
		CHANNELS 3 Xrotation Zrotation Yrotation
		JOINT chest
		{
			OFFSET 0.000000 8.438565 -0.680529 
			CHANNELS 3 Xrotation Zrotation Yrotation
			JOINT neck
			{
				OFFSET 0.000000 10.207942 -0.272212 
				CHANNELS 3 Xrotation Zrotation Yrotation
				JOINT head
				{
					OFFSET 0.000000 3.130431 0.000000 
					CHANNELS 3 Xrotation Zrotation Yrotation
					End Site
					{
						OFFSET 0.000000 3.130435 0.000000 
					}
				}
			}
			JOINT lCollar
			{
				OFFSET 3.470700 6.669187 -0.816635 
				CHANNELS 3 Yrotation Zrotation Xrotation
				JOINT lShldr
				{
					OFFSET 3.198488 0.000000 0.000000 
					CHANNELS 3 Zrotation Yrotation Xrotation
					JOINT lForeArm
					{
						OFFSET 10.139888 0.000000 0.000000 
						CHANNELS 3 Yrotation Zrotation Xrotation
						JOINT lHand
						{
							OFFSET 8.370511 0.000000 0.000000 
							CHANNELS 3 Zrotation Yrotation Xrotation
							End Site
							{
								OFFSET 4.083176 0.000000 0.000000 
							}
						}
					}
				}
			}
			JOINT rCollar
			{
				OFFSET -3.470700 6.669187 -0.816635 
				CHANNELS 3 Yrotation Zrotation Xrotation
				JOINT rShldr
				{
					OFFSET -3.198488 0.000000 0.000000 
					CHANNELS 3 Zrotation Yrotation Xrotation
					JOINT rForeArm
					{
						OFFSET -10.139888 0.000000 0.000000 
						CHANNELS 3 Yrotation Zrotation Xrotation
						JOINT rHand
						{
							OFFSET -8.370511 0.000000 0.000000 
							CHANNELS 3 Zrotation Yrotation Xrotation
							End Site
							{
								OFFSET -4.083176 0.000000 0.000000 
							}
						}
					}
				}
			}
		}
	}
	JOINT lThigh
	{
		OFFSET 5.308129 -1.633274 1.361059 
		CHANNELS 3 Xrotation Zrotation Yrotation
		JOINT lShin
		{
			OFFSET -2.041588 -20.007561 0.000000 
			CHANNELS 3 Xrotation Zrotation Yrotation
			JOINT lFoot
			{
				OFFSET 0.000000 -19.190928 -1.224953 
				CHANNELS 3 Xrotation Yrotation Zrotation
				End Site
				{
					OFFSET 0.000000 -2.449906 4.627600 
				}
			}
		}
	}
	JOINT rThigh
	{
		OFFSET -5.308129 -1.633274 1.361059 
		CHANNELS 3 Xrotation Zrotation Yrotation
		JOINT rShin
		{
			OFFSET 2.041588 -20.007561 0.000000 
			CHANNELS 3 Xrotation Zrotation Yrotation
			JOINT rFoot
			{
				OFFSET 0.000000 -19.190928 -1.224953 
				CHANNELS 3 Xrotation Yrotation Zrotation
				End Site
				{
					OFFSET 0.000000 -2.449906 4.627600 
				}
			}
		}
	}
}
MOTION
Frames: 8
Frame Time: 0.033333
-1.296283 52.749924 1.340815 -1.425781 -0.361328 -46.074219 32.165325 -10.956847 -2.179899 -12.519531 5.292969 4.395433 51.553619 8.070152 2.616707 -79.277344 -2.832031 5.019049 2.000000 -2.000000 0.000000 -59.931644 11.093749 -29.521481 -49.404716 -1.570460 -1.988016 -3.747380 53.456917 -4.869405 -2.000000 2.000000 0.000000 46.591797 -27.246094 -3.168534 50.642414 1.361005 -2.254710 5.073595 -48.796631 -15.743374 -4.355595 -0.206052 4.240529 18.668985 -5.800707 -2.307978 0.789596 19.696297 -7.835585 0.690218 -10.724828 -20.723417 43.549828 3.960730 3.710611 30.336786 -23.152868 1.367598 
-2.663929 53.304234 2.608746 -0.361328 -1.582031 -48.691402 32.702797 -8.888422 -3.372975 -13.867188 6.865235 5.039063 51.553619 8.070152 2.616707 -78.339844 -5.146484 10.820313 2.000000 -2.000000 0.000000 -59.101566 11.660156 -29.628906 -49.931778 -1.579640 -1.977701 -5.206993 52.674709 -5.443027 -2.000000 2.000000 0.000000 46.982418 -27.802732 -0.488281 50.811005 1.159862 -1.992611 5.045903 -48.220249 -15.205261 -0.806717 1.447282 6.801558 16.562408 -6.094541 -2.106461 2.879211 19.785320 -7.473053 -3.476609 -9.642871 -20.891899 42.494457 4.048728 3.636473 30.820086 -25.413687 2.967412 
-4.026499 53.790726 3.761145 0.869141 -2.285156 -49.804688 33.254749 -6.586779 -4.608468 -15.214846 8.457032 5.791016 51.553619 8.070152 2.616707 -77.578125 -7.333983 15.078128 2.000000 -2.000000 0.000000 -58.759762 11.787110 -29.382771 -50.486561 -1.409354 -1.909166 -6.351347 51.335518 -6.138082 -2.000000 2.000000 0.000000 47.480469 -28.623049 -0.414834 51.162556 1.169611 -1.992043 5.637356 -47.687202 -15.276858 1.931552 2.721502 9.461000 14.838437 -6.084260 -1.868922 6.170552 17.974098 -7.743424 -7.489699 -8.611398 -20.957218 41.404091 4.130515 3.701021 30.002333 -26.946297 3.389066 
-5.203729 54.340675 4.405978 2.109375 -2.470688 -48.643177 33.799252 -4.529271 -5.755131 -16.201174 10.048828 6.347655 51.553619 8.070152 2.616707 -77.314453 -8.994140 15.957029 2.000000 -2.000000 0.000000 -58.984371 10.527344 -28.611496 -51.359928 -1.418456 -2.065334 -7.132785 49.056820 -6.463375 -2.000000 2.000000 0.000000 50.029293 -30.273438 -7.294921 51.518635 1.169526 -2.158285 7.459025 -46.901375 -15.419007 3.197873 4.281792 10.966163 14.303336 -6.122895 -1.823585 12.906652 14.914153 -7.060319 -10.556073 -7.303936 -20.324949 38.774979 4.413651 3.053931 27.089777 -26.858942 4.299185 
-6.112420 54.852406 4.274302 3.496094 -2.470703 -46.065079 33.946590 -3.012898 -6.631030 -17.207031 11.474609 6.818125 51.553619 8.070152 2.616707 -77.363289 -10.283201 15.000000 2.000000 -2.000000 0.000000 -59.033203 9.316406 -27.342171 -52.414074 -1.427068 -2.045274 -7.508582 46.706509 -6.640471 -2.000000 2.000000 0.000000 53.388672 -31.064455 -17.954258 51.344772 1.339804 -2.226608 10.135000 -45.562565 -16.638479 2.018772 6.019376 11.031757 15.684213 -5.565351 -1.418444 23.609325 9.577155 -6.454594 -12.172819 -5.571037 -20.188993 33.837788 4.609317 3.083941 20.009621 -23.952662 2.784675 
-7.007870 54.932899 3.898117 4.384766 -2.646484 -44.169922 34.064850 -1.825294 -7.299681 -17.851563 12.880860 7.121317 51.553619 8.070152 2.616707 -77.724609 -11.191406 14.627010 2.000000 -2.000000 0.000000 -59.541012 7.685547 -26.902992 -53.107151 -1.436248 -2.034960 -7.794072 44.736355 -6.621828 -2.000000 2.000000 0.000000 54.453125 -31.113281 -23.813641 51.345222 1.399434 -2.242696 11.938559 -44.726582 -16.940617 0.575574 7.879712 9.798960 18.154474 -5.487983 -1.692935 35.343243 4.909235 -6.104925 -12.416141 -3.609046 -18.947273 26.787123 4.814305 2.563288 10.506985 -18.132380 2.443568 
-8.654285 54.536797 4.979978 4.570313 -2.646484 -43.662560 33.668312 -2.361632 -7.063049 -17.617188 13.740236 6.848023 51.553619 8.070152 2.616707 -78.769531 -10.996093 14.658204 2.000000 -2.000000 0.000000 -59.238285 5.068360 -26.484377 -53.138935 -1.276557 -2.484527 -7.727708 44.354836 -7.139661 -2.000000 2.000000 0.000000 52.753910 -31.113281 -21.596842 51.163029 1.219494 -2.008699 12.583082 -45.321892 -14.791372 1.981696 8.602288 8.316217 19.570871 -5.381518 -2.316150 38.028030 4.329344 -6.228545 -11.701963 -1.451575 -17.716349 19.920439 5.311936 2.101515 2.621104 -13.207550 3.027493 
-10.799299 53.636078 6.733491 4.384766 -2.832031 -43.662109 32.635693 -4.378449 -6.352843 -16.503906 14.179688 6.340283 51.553619 8.070152 2.616707 -80.126953 -9.628906 14.138992 2.000000 -2.000000 0.000000 -58.193363 2.685547 -26.396484 -52.931370 -1.436248 -2.034960 -8.531036 44.177219 -7.920696 -2.000000 2.000000 0.000000 49.755859 -30.234371 -15.820312 50.987518 1.210314 -2.019012 11.357282 -46.476757 -11.489903 4.099092 9.050087 6.522615 22.797749 -5.357908 -2.446995 33.931412 6.275661 -5.974049 -8.432052 0.391750 -14.315842 12.497265 5.909118 1.014624 0.950684 -12.885751 4.905586 
